PathFileType	4	(X/Y/Z)	/Users/itak/Documents/Research/Walk-IL/dataset/trc/00506_00183.trc
DataRate	CameraRate	NumFrames	NumMarkers	Units	OrigDataRate	OrigDataStartFrame	OrigNumFrames
100.000000	100.000000	4	53	mm	100.000000	105	421
Frame#	Time	RPSI			LPSI			L3			STRN			T10			C7			CLAV			RBAK			LBAK			LSHO			LUPA			LAEL			LAOL			LWTS			LWPS			LFRA			LIFD			LHPS			LHTS			RSHO			RUPA			RAEL			RAOL			RWTS			RWPS			RFRA			RIFD			RHTS			RHPS			RBHD			LFHD			RFHD			LBHD			LHIP			RHIP			RASI			LASI			LKNE			LTHI			LANK			LTIP			LTOE			LMT1			LMT5			LHEE			RKNE			RTHI			RANK			RTIP			RTOE			RMT1			RMT5			RHEE			
		X1	Y1	Z1	X2	Y2	Z2	X3	Y3	Z3	X4	Y4	Z4	X5	Y5	Z5	X6	Y6	Z6	X7	Y7	Z7	X8	Y8	Z8	X9	Y9	Z9	X10	Y10	Z10	X11	Y11	Z11	X12	Y12	Z12	X13	Y13	Z13	X14	Y14	Z14	X15	Y15	Z15	X16	Y16	Z16	X17	Y17	Z17	X18	Y18	Z18	X19	Y19	Z19	X20	Y20	Z20	X21	Y21	Z21	X22	Y22	Z22	X23	Y23	Z23	X24	Y24	Z24	X25	Y25	Z25	X26	Y26	Z26	X27	Y27	Z27	X28	Y28	Z28	X29	Y29	Z29	X30	Y30	Z30	X31	Y31	Z31	X32	Y32	Z32	X33	Y33	Z33	X34	Y34	Z34	X35	Y35	Z35	X36	Y36	Z36	X37	Y37	Z37	X38	Y38	Z38	X39	Y39	Z39	X40	Y40	Z40	X41	Y41	Z41	X42	Y42	Z42	X43	Y43	Z43	X44	Y44	Z44	X45	Y45	Z45	X46	Y46	Z46	X47	Y47	Z47	X48	Y48	Z48	X49	Y49	Z49	X50	Y50	Z50	X51	Y51	Z51	X52	Y52	Z52	X53	Y53	Z53	

106	1.05	-1079.50634765625	976.5679931640625	-465.6212768554688	-1016.48974609375	975.022216796875	-572.4487915039062	-1053.759033203125	1036.068969726562	-527.2908325195312	-842.4918823242188	1188.302856445312	-431.6556396484375	-1061.839111328125	1143.104858398438	-529.5046997070312	-1006.707397460938	1370.090698242188	-502.6192016601562	-869.6676635742188	1285.37744140625	-444.2435607910156	-1090.403686523438	1250.49072265625	-446.8489379882812	-995.3082275390625	1317.295532226562	-592.2652587890625	-878.6107788085938	1362.336059570312	-620.9641723632812	-873.545166015625	1238.8974609375	-687.8135986328125	-860.3746337890625	1030.235961914062	-714.8991088867188	-953.0321044921875	1020.625122070312	-678.9044799804688	-761.188232421875	863.4292602539062	-644.9867553710938	-813.8367309570312	819.1981811523438	-709.2386474609375	-835.4053955078125	955.8888549804688	-709.0452880859375	-754.6283569335938	705.0280151367188	-625.761474609375	-789.3275756835938	767.7739868164062	-693.7615966796875	-739.892822265625	783.9318237304688	-654.5496826171875	-1015.976745605469	1362.1337890625	-344.9676818847656	-1058.0263671875	1296.193603515625	-301.8358154296875	-1087.784423828125	1029.286865234375	-266.6209716796875	-1121.822265625	1016.2607421875	-322.1542358398438	-989.7324829101562	825.0785522460938	-260.8754577636719	-1077.793334960938	803.36474609375	-250.2765960693359	-1089.079467773438	974.628173828125	-259.3357543945312	-993.5721435546875	664.4231567382812	-273.0910949707031	-988.4129638671875	728.3989868164062	-241.8056640625	-1059.160522460938	728.94580078125	-248.5454254150391	-1030.390869140625	1506.323120117188	-424.4198608398438	-862.1908569335938	1598.306640625	-483.1107177734375	-929.6168823242188	1586.5478515625	-375.6313171386719	-957.93603515625	1513.850830078125	-565.9979858398438	-864.42724609375	889.2047119140625	-637.0094604492188	-1062.79345703125	863.8294677734375	-311.2758483886719	-939.0831909179688	899.1697387695312	-317.5778198242188	-819.4197998046875	912.839599609375	-527.9898071289062	-910.9166870117188	466.1973876953125	-601.8720092773438	-874.3653564453125	621.3372192382812	-613.08251953125	-1032.047485351562	48.8027458190918	-648.9209594726562	-945.3192749023438	317.9323120117188	-621.3714599609375	-897.129150390625	44.54537963867188	-494.3166809082031	-981.3051147460938	42.44297790527344	-506.1345825195312	-936.8363647460938	50.70048904418945	-596.2296752929688	-1106.093505859375	41.52365112304688	-625.12548828125	-1044.994262695312	475.1515197753906	-350.8710327148438	-1051.073608398438	736.4895629882812	-306.3304138183594	-1163.544677734375	54.85538482666016	-407.972412109375	-1051.331420898438	328.4175415039062	-364.4097595214844	-970.1107177734375	48.2508659362793	-349.5698852539062	-1006.478088378906	44.23330307006836	-415.43212890625	-1071.728881835938	53.84899520874023	-343.6158447265625	-1191.018676757812	41.30123138427734	-472.928466796875	
107	1.06	-1077.341430664062	976.4983520507812	-464.5179443359375	-1014.318359375	975.0584716796875	-571.3451538085938	-1050.674072265625	1036.420288085938	-526.1588745117188	-838.3578491210938	1187.1142578125	-431.196044921875	-1057.91015625	1143.22802734375	-528.7033081054688	-1001.458679199219	1369.91552734375	-501.8135986328125	-864.7786254882812	1284.413818359375	-443.5871276855469	-1085.801635742188	1250.729614257812	-446.0738830566406	-990.3799438476562	1317.17333984375	-591.3973999023438	-873.4808349609375	1361.835571289062	-620.0328979492188	-868.6005859375	1238.677368164062	-687.3751831054688	-855.00244140625	1030.462768554688	-714.6609497070312	-947.7168579101562	1020.262390136719	-679.2427368164062	-753.3089599609375	866.1978149414062	-643.3087768554688	-805.0466918945312	820.299560546875	-707.1898803710938	-829.0426635742188	956.8433837890625	-708.0748291015625	-742.4190673828125	708.1031494140625	-623.6918334960938	-779.0036010742188	769.8567504882812	-691.7894287109375	-730.0348510742188	787.3740844726562	-652.7218017578125	-1010.603271484375	1361.964599609375	-344.0490112304688	-1053.009399414062	1296.2333984375	-301.0209350585938	-1084.872802734375	1029.615112304688	-266.3266906738281	-1118.568603515625	1016.983093261719	-322.1034851074219	-989.393798828125	824.5948486328125	-259.18310546875	-1077.753295898438	803.3806762695312	-250.6350860595703	-1086.822998046875	975.0001220703125	-259.1033630371094	-993.8201904296875	664.0777587890625	-273.0329284667969	-989.0599365234375	727.7047729492188	-240.9690551757812	-1059.6025390625	728.779052734375	-249.3185119628906	-1025.91064453125	1505.070434570312	-423.9868774414062	-857.8947143554688	1598.079223632812	-481.5219421386719	-925.8798828125	1585.720581054688	-374.4521179199219	-952.6622924804688	1513.274536132812	-565.12451171875	-862.9996337890625	888.8309936523438	-636.6109008789062	-1060.373168945312	862.3900756835938	-310.4020690917969	-936.908935546875	898.007568359375	-317.1431579589844	-817.4312133789062	911.9571533203125	-527.6084594726562	-910.3348388671875	465.8643493652344	-602.7780151367188	-873.4833984375	620.991455078125	-613.611328125	-1032.077880859375	48.60902786254883	-649.0416870117188	-944.987060546875	317.7167358398438	-622.1271362304688	-897.0880126953125	44.49130630493164	-494.5155944824219	-981.2569580078125	42.51244735717773	-506.2248229980469	-936.780517578125	50.57883834838867	-596.4080200195312	-1106.147705078125	41.35037612915039	-625.3006591796875	-1037.331176757812	474.402587890625	-351.69921875	-1047.732177734375	735.32958984375	-306.9750061035156	-1162.837524414062	56.86274337768555	-407.9432983398438	-1045.052978515625	327.9888916015625	-364.1082458496094	-969.814208984375	47.46115875244141	-349.6087951660156	-1006.285522460938	43.74947357177734	-415.430908203125	-1071.241577148438	54.22627639770508	-343.5712585449219	-1190.584350585938	44.03483963012695	-472.84765625	
108	1.07	-1075.2666015625	976.3448486328125	-463.2811584472656	-1012.166259765625	975.1220092773438	-570.0809936523438	-1047.59033203125	1036.786743164062	-524.8934326171875	-834.1912231445312	1185.842529296875	-430.5344848632812	-1053.87890625	1143.315063476562	-527.84423828125	-996.0545654296875	1369.68505859375	-500.94482421875	-859.8147583007812	1283.36865234375	-442.7622375488281	-1081.124389648438	1250.962158203125	-445.2666931152344	-985.2892456054688	1316.972290039062	-590.447509765625	-868.1649780273438	1361.195556640625	-618.9713745117188	-863.3446044921875	1238.272094726562	-686.7421875	-849.2362670898438	1030.55126953125	-714.0562744140625	-942.0322265625	1019.695190429688	-679.4027709960938	-745.1917114257812	868.9963989257812	-640.9508666992188	-795.7880859375	821.346923828125	-704.56396484375	-822.262939453125	957.6736450195312	-706.6578979492188	-729.5739135742188	711.3535766601562	-621.0033569335938	-768.0537719726562	772.0452270507812	-689.2476196289062	-719.7495727539062	790.9696044921875	-650.2161865234375	-1005.178283691406	1361.770263671875	-343.0582885742188	-1047.988037109375	1296.260009765625	-300.1553039550781	-1082.091918945312	1029.946533203125	-266.0937805175781	-1115.394165039062	1017.744201660156	-322.1469116210938	-989.377197265625	824.074462890625	-257.4468688964844	-1078.0087890625	803.4420166015625	-251.1277618408203	-1084.721801757812	975.3885498046875	-258.9458312988281	-994.4869995117188	663.7081909179688	-272.88818359375	-990.1237182617188	726.9883422851562	-240.0783538818359	-1060.398071289062	728.6586303710938	-250.1726226806641	-1021.296691894531	1503.75439453125	-423.5155029296875	-853.4769897460938	1597.765869140625	-479.9207763671875	-922.0180053710938	1584.845947265625	-373.2645263671875	-947.2588500976562	1512.589477539062	-564.2079467773438	-861.6072998046875	888.5116577148438	-636.1112060546875	-1058.002807617188	860.7544555664062	-309.490966796875	-934.7987060546875	896.7495727539062	-316.5985717773438	-815.4757080078125	911.0531616210938	-527.1212158203125	-909.772216796875	465.5502624511719	-603.7617797851562	-872.6325073242188	620.6741333007812	-614.1859741210938	-1032.101928710938	48.42456436157227	-649.1830444335938	-944.7130126953125	317.5314636230469	-622.9559326171875	-897.0221557617188	44.46045303344727	-494.7516174316406	-981.1732788085938	42.61850357055664	-506.3282470703125	-936.69970703125	50.447021484375	-596.6171264648438	-1106.190063476562	41.1976318359375	-625.4639282226562	-1028.7529296875	473.6377258300781	-352.2721252441406	-1043.837890625	733.7843627929688	-307.3705139160156	-1161.917602539062	59.47732925415039	-407.9708862304688	-1038.111694335938	327.7562866210938	-363.5972900390625	-969.4816284179688	46.67562484741211	-349.5999755859375	-1005.984680175781	43.40313339233398	-415.4140014648438	-1070.654418945312	54.81929397583008	-343.5374450683594	-1189.8818359375	47.55754470825195	-472.8487243652344	
109	1.08	-1073.267333984375	976.1077270507812	-461.909912109375	-1010.036865234375	975.2164306640625	-568.6630859375	-1044.51513671875	1037.165283203125	-523.5003662109375	-829.998046875	1184.493286132812	-429.6563415527344	-1049.744140625	1143.366577148438	-526.9053955078125	-990.5134887695312	1369.399047851562	-499.9834289550781	-854.79150390625	1282.245361328125	-441.7513732910156	-1076.375	1251.185913085938	-444.3995361328125	-980.0505981445312	1316.691040039062	-589.3991088867188	-862.6818237304688	1360.41455078125	-617.76953125	-857.7825927734375	1237.667236328125	-685.8779907226562	-843.07373046875	1030.471923828125	-713.0389404296875	-935.9739990234375	1018.892944335938	-679.3326416015625	-736.8497314453125	871.8036499023438	-637.8753662109375	-786.1043701171875	822.343017578125	-701.3095092773438	-815.0718383789062	958.36328125	-704.7526245117188	-716.204345703125	714.7767944335938	-617.630615234375	-756.5397338867188	774.3333740234375	-686.072021484375	-709.091796875	794.6869506835938	-646.979736328125	-999.7141723632812	1361.546020507812	-341.974609375	-1042.978393554688	1296.271240234375	-299.2216796875	-1079.474731445312	1030.281127929688	-265.91748046875	-1112.332885742188	1018.542907714844	-322.2785339355469	-989.6845703125	823.5310668945312	-255.7020874023438	-1078.545776367188	803.5599975585938	-251.7552490234375	-1082.796630859375	975.7919921875	-258.8639221191406	-995.5639038085938	663.325927734375	-272.6451416015625	-991.5899047851562	726.2734375	-239.1465301513672	-1061.530517578125	728.5985717773438	-251.0870666503906	-1016.549621582031	1502.391357421875	-422.9837646484375	-848.9385375976562	1597.367065429688	-478.3245849609375	-918.01708984375	1583.943969726562	-372.0734558105469	-941.746826171875	1511.786254882812	-563.2399291992188	-860.2378540039062	888.2447509765625	-635.5160522460938	-1055.673950195312	858.9853515625	-308.5507507324219	-932.7107543945312	895.416259765625	-315.9423828125	-813.5426025390625	910.12744140625	-526.545166015625	-909.2365112304688	465.2534790039062	-604.828369140625	-871.8076782226562	620.3848266601562	-614.8045043945312	-1032.123901367188	48.2495002746582	-649.3493041992188	-944.5064697265625	317.3785705566406	-623.866455078125	-896.9319458007812	44.45752334594727	-495.0284118652344	-981.0535888671875	42.76399993896484	-506.44873046875	-936.5968627929688	50.30378723144531	-596.8568115234375	-1106.221801757812	41.06474304199219	-625.6162109375	-1019.311401367188	472.9069519042969	-352.4995727539062	-1039.359741210938	731.9105224609375	-307.4375610351562	-1160.743896484375	62.74932861328125	-408.0724182128906	-1030.556762695312	327.7929077148438	-362.8641357421875	-969.083251953125	45.9476203918457	-349.584228515625	-1005.533264160156	43.27309799194336	-415.4166564941406	-1069.930908203125	55.6812629699707	-343.5469360351562	-1188.856201171875	51.91986083984375	-472.9508361816406	
